<svg width="150" height="151" viewBox="0 0 150 151" fill="none" xmlns="http://www.w3.org/2000/svg">
<g filter="url(#filter0_d_16_18)">
<circle cx="76.5" cy="74.6373" r="64.5" fill="#F55635"/>
<circle cx="76.5" cy="74.6373" r="67.424" stroke="white" stroke-width="5.848"/>
</g>
<path d="M50.6106 73.0659L54.8624 68.6077H65.0586L69.0627 73.0659H50.6106ZM49.3722 52.7974L53.8304 57.0905V67.2041L49.3722 71.2496V52.7974ZM54.1607 54.2835C53.1975 53.5129 52.2205 52.7561 51.2298 52.0131L54.1607 49.8253H65.4301L68.3197 52.0131L65.4301 54.2835H54.1607ZM50.5693 31.1254H69.0215L64.9347 35.5837H54.8211L50.5693 31.1254ZM70.2599 32.9005V51.3526L65.8016 47.3485V37.1523L70.2599 32.9005ZM83.6265 73.0659L87.8784 68.6077H98.0745L102.079 73.0659H83.6265ZM103.4 71.2496L98.9414 66.9977V56.8429L103.4 52.7974V71.2496ZM87.1766 54.2835C86.2134 53.5129 85.2364 52.7561 84.2457 52.0131L87.1766 49.8253H98.446L101.336 52.0131L98.446 54.2835H87.1766ZM83.5852 31.1254H102.037L97.9507 35.5837H87.8371L83.5852 31.1254ZM82.2643 51.3526V32.9005L86.7225 36.9046V47.1421L82.2643 51.3526ZM50.6106 123.066L54.8624 118.608H65.0586L69.0627 123.066H50.6106ZM49.3722 102.797L53.8304 107.091V117.204L49.3722 121.25V102.797ZM70.3837 121.25L65.9255 116.998V106.843L70.3837 102.797V121.25ZM50.5693 81.1254H69.0215L64.9347 85.5837H54.8211L50.5693 81.1254ZM49.2483 101.353V82.9005L53.7066 86.9046V97.1421L49.2483 101.353ZM70.2599 82.9005V101.353L65.8016 97.3485V87.1523L70.2599 82.9005ZM83.6265 123.066L87.8784 118.608H98.0745L102.079 123.066H83.6265ZM82.3881 102.797L86.8464 107.091V117.204L82.3881 121.25V102.797ZM103.4 121.25L98.9414 116.998V106.843L103.4 102.797V121.25ZM83.5852 81.1254H102.037L97.9507 85.5837H87.8371L83.5852 81.1254ZM82.2643 101.353V82.9005L86.7225 86.9046V97.1421L82.2643 101.353ZM103.276 82.9005V101.353L98.8176 97.3485V87.1523L103.276 82.9005Z" fill="black"/>
<path d="M50.6106 73.0659L48.6191 71.1666C47.859 71.9635 47.6473 73.1368 48.0807 74.1491C48.5142 75.1614 49.5094 75.8179 50.6106 75.8179V73.0659ZM54.8624 68.6077V65.8557C54.1099 65.8557 53.3902 66.1638 52.8709 66.7083L54.8624 68.6077ZM65.0586 68.6077L67.106 66.7688C66.584 66.1876 65.8397 65.8557 65.0586 65.8557V68.6077ZM69.0627 73.0659V75.8179C70.149 75.8179 71.1337 75.1789 71.5761 74.1868C72.0186 73.1947 71.836 72.0352 71.1102 71.227L69.0627 73.0659ZM49.3722 52.7974L51.2811 50.8151C50.4861 50.0496 49.3107 49.833 48.2951 50.2649C47.2795 50.6969 46.6202 51.6938 46.6202 52.7974H49.3722ZM53.8304 57.0905H56.5824C56.5824 56.3427 56.278 55.627 55.7393 55.1082L53.8304 57.0905ZM53.8304 67.2041L55.6797 69.2422C56.2546 68.7205 56.5824 67.9804 56.5824 67.2041H53.8304ZM49.3722 71.2496H46.6202C46.6202 72.3384 47.2621 73.3249 48.2577 73.7658C49.2532 74.2068 50.4151 74.0193 51.2215 73.2876L49.3722 71.2496ZM54.1607 54.2835L52.4415 56.4324C52.9295 56.8228 53.5358 57.0355 54.1607 57.0355V54.2835ZM51.2298 52.0131L49.5836 49.8078C48.8885 50.3266 48.4788 51.1427 48.4778 52.01C48.4768 52.8773 48.8847 53.6943 49.5786 54.2147L51.2298 52.0131ZM54.1607 49.8253V47.0733C53.5673 47.0733 52.9899 47.265 52.5144 47.6199L54.1607 49.8253ZM65.4301 49.8253L67.0913 47.6312C66.6132 47.2692 66.0298 47.0733 65.4301 47.0733V49.8253ZM68.3197 52.0131L70.0199 54.177C70.6908 53.65 71.0792 52.8416 71.0716 51.9884C71.0639 51.1353 70.6611 50.334 69.9809 49.819L68.3197 52.0131ZM65.4301 54.2835V57.0355C66.0467 57.0355 66.6455 56.8284 67.1303 56.4474L65.4301 54.2835ZM50.5693 31.1254V28.3734C49.4681 28.3734 48.4729 29.0299 48.0394 30.0422C47.606 31.0546 47.8178 32.2278 48.5778 33.0247L50.5693 31.1254ZM69.0215 31.1254L71.0501 32.985C71.7876 32.1805 71.9799 31.0163 71.5405 30.0173C71.101 29.0183 70.1128 28.3734 69.0215 28.3734V31.1254ZM64.9347 35.5837V38.3357C65.7061 38.3357 66.4421 38.0119 66.9634 37.4432L64.9347 35.5837ZM54.8211 35.5837L52.8296 37.483C53.349 38.0275 54.0686 38.3357 54.8211 38.3357V35.5837ZM70.2599 32.9005H73.0119C73.0119 31.7992 72.3554 30.804 71.343 30.3706C70.3307 29.9371 69.1575 30.1489 68.3605 30.9089L70.2599 32.9005ZM70.2599 51.3526L68.421 53.4C69.2291 54.1259 70.3887 54.3084 71.3808 53.866C72.3729 53.4235 73.0119 52.4389 73.0119 51.3526H70.2599ZM65.8016 47.3485H63.0496C63.0496 48.1296 63.3816 48.8739 63.9627 49.3959L65.8016 47.3485ZM65.8016 37.1523L63.9023 35.1608C63.3578 35.6801 63.0496 36.3998 63.0496 37.1523H65.8016ZM52.6021 74.9652L56.8539 70.507L52.8709 66.7083L48.6191 71.1666L52.6021 74.9652ZM54.8624 71.3597H65.0586V65.8557H54.8624V71.3597ZM63.0111 70.4466L67.0153 74.9048L71.1102 71.227L67.106 66.7688L63.0111 70.4466ZM69.0627 70.3139H50.6106V75.8179H69.0627V70.3139ZM47.4633 54.7797L51.9215 59.0729L55.7393 55.1082L51.2811 50.8151L47.4633 54.7797ZM51.0784 57.0905V67.2041H56.5824V57.0905H51.0784ZM51.9811 65.1661L47.5229 69.2116L51.2215 73.2876L55.6797 69.2422L51.9811 65.1661ZM52.1242 71.2496V52.7974H46.6202V71.2496H52.1242ZM55.8798 52.1345C54.8942 51.346 53.8945 50.5717 52.881 49.8115L49.5786 54.2147C50.5465 54.9406 51.5008 55.6799 52.4415 56.4324L55.8798 52.1345ZM52.876 54.2184L55.8069 52.0306L52.5144 47.6199L49.5836 49.8078L52.876 54.2184ZM54.1607 52.5773H65.4301V47.0733H54.1607V52.5773ZM63.7689 52.0193L66.6585 54.2072L69.9809 49.819L67.0913 47.6312L63.7689 52.0193ZM66.6195 49.8491L63.7299 52.1195L67.1303 56.4474L70.0199 54.177L66.6195 49.8491ZM65.4301 51.5315H54.1607V57.0355H65.4301V51.5315ZM50.5693 33.8774H69.0215V28.3734H50.5693V33.8774ZM66.9928 29.2658L62.9061 33.7241L66.9634 37.4432L71.0501 32.985L66.9928 29.2658ZM64.9347 32.8317H54.8211V38.3357H64.9347V32.8317ZM56.8126 33.6843L52.5608 29.2261L48.5778 33.0247L52.8296 37.483L56.8126 33.6843ZM67.5079 32.9005V51.3526H73.0119V32.9005H67.5079ZM72.0988 49.3052L67.6405 45.301L63.9627 49.3959L68.421 53.4L72.0988 49.3052ZM68.5536 47.3485V37.1523H63.0496V47.3485H68.5536ZM67.7009 39.1438L72.1592 34.892L68.3605 30.9089L63.9023 35.1608L67.7009 39.1438ZM83.6265 73.0659L81.635 71.1666C80.875 71.9635 80.6632 73.1368 81.0967 74.1491C81.5301 75.1614 82.5253 75.8179 83.6265 75.8179V73.0659ZM87.8784 68.6077V65.8557C87.1259 65.8557 86.4062 66.1638 85.8868 66.7083L87.8784 68.6077ZM98.0745 68.6077L100.122 66.7688C99.6 66.1876 98.8557 65.8557 98.0745 65.8557V68.6077ZM102.079 73.0659V75.8179C103.165 75.8179 104.15 75.1789 104.592 74.1868C105.035 73.1947 104.852 72.0352 104.126 71.227L102.079 73.0659ZM103.4 71.2496L101.5 73.2411C102.297 74.0011 103.47 74.2129 104.483 73.7794C105.495 73.346 106.152 72.3508 106.152 71.2496H103.4ZM98.9414 66.9977H96.1894C96.1894 67.7502 96.4975 68.4699 97.0421 68.9892L98.9414 66.9977ZM98.9414 56.8429L97.0921 54.8048C96.5172 55.3265 96.1894 56.0666 96.1894 56.8429H98.9414ZM103.4 52.7974H106.152C106.152 51.7086 105.51 50.7221 104.514 50.2812C103.519 49.8402 102.357 50.0277 101.55 50.7594L103.4 52.7974ZM87.1766 54.2835L85.4574 56.4324C85.9454 56.8228 86.5517 57.0355 87.1766 57.0355V54.2835ZM84.2457 52.0131L82.5995 49.8078C81.9045 50.3266 81.4947 51.1427 81.4937 52.01C81.4927 52.8773 81.9007 53.6943 82.5945 54.2147L84.2457 52.0131ZM87.1766 49.8253V47.0733C86.5833 47.0733 86.0058 47.265 85.5304 47.6199L87.1766 49.8253ZM98.446 49.8253L100.107 47.6312C99.6291 47.2692 99.0458 47.0733 98.446 47.0733V49.8253ZM101.336 52.0131L103.036 54.177C103.707 53.65 104.095 52.8416 104.088 51.9884C104.08 51.1353 103.677 50.334 102.997 49.819L101.336 52.0131ZM98.446 54.2835V57.0355C99.0627 57.0355 99.6614 56.8284 100.146 56.4474L98.446 54.2835ZM83.5852 31.1254V28.3734C82.484 28.3734 81.4888 29.0299 81.0554 30.0422C80.6219 31.0546 80.8337 32.2278 81.5937 33.0247L83.5852 31.1254ZM102.037 31.1254L104.066 32.985C104.803 32.1805 104.996 31.0163 104.556 30.0173C104.117 29.0183 103.129 28.3734 102.037 28.3734V31.1254ZM97.9507 35.5837V38.3357C98.7221 38.3357 99.4581 38.0119 99.9793 37.4432L97.9507 35.5837ZM87.8371 35.5837L85.8456 37.483C86.3649 38.0275 87.0846 38.3357 87.8371 38.3357V35.5837ZM82.2643 51.3526H79.5123C79.5123 52.4514 80.1659 53.4449 81.1749 53.8798C82.184 54.3148 83.355 54.1078 84.1539 53.3534L82.2643 51.3526ZM82.2643 32.9005L84.1032 30.853C83.295 30.1272 82.1355 29.9446 81.1434 30.3871C80.1513 30.8295 79.5123 31.8142 79.5123 32.9005H82.2643ZM86.7225 36.9046H89.4745C89.4745 36.1235 89.1426 35.3791 88.5614 34.8572L86.7225 36.9046ZM86.7225 47.1421L88.6121 49.1428C89.1626 48.6229 89.4745 47.8992 89.4745 47.1421H86.7225ZM85.618 74.9652L89.8699 70.507L85.8868 66.7083L81.635 71.1666L85.618 74.9652ZM87.8784 71.3597H98.0745V65.8557H87.8784V71.3597ZM96.0271 70.4466L100.031 74.9048L104.126 71.227L100.122 66.7688L96.0271 70.4466ZM102.079 70.3139H83.6265V75.8179H102.079V70.3139ZM105.299 69.2581L100.841 65.0062L97.0421 68.9892L101.5 73.2411L105.299 69.2581ZM101.693 66.9977V56.8429H96.1894V66.9977H101.693ZM100.791 58.8809L105.249 54.8354L101.55 50.7594L97.0921 54.8048L100.791 58.8809ZM100.648 52.7974V71.2496H106.152V52.7974H100.648ZM88.8958 52.1345C87.9101 51.346 86.9105 50.5717 85.8969 49.8115L82.5945 54.2147C83.5624 54.9406 84.5167 55.6799 85.4574 56.4324L88.8958 52.1345ZM85.8919 54.2184L88.8228 52.0306L85.5304 47.6199L82.5995 49.8078L85.8919 54.2184ZM87.1766 52.5773H98.446V47.0733H87.1766V52.5773ZM96.7848 52.0193L99.6744 54.2072L102.997 49.819L100.107 47.6312L96.7848 52.0193ZM99.6354 49.8491L96.7458 52.1195L100.146 56.4474L103.036 54.177L99.6354 49.8491ZM98.446 51.5315H87.1766V57.0355H98.446V51.5315ZM83.5852 33.8774H102.037V28.3734H83.5852V33.8774ZM100.009 29.2658L95.922 33.7241L99.9793 37.4432L104.066 32.985L100.009 29.2658ZM97.9507 32.8317H87.8371V38.3357H97.9507V32.8317ZM89.8286 33.6843L85.5767 29.2261L81.5937 33.0247L85.8456 37.483L89.8286 33.6843ZM85.0163 51.3526V32.9005H79.5123V51.3526H85.0163ZM80.4254 34.9479L84.8836 38.952L88.5614 34.8572L84.1032 30.853L80.4254 34.9479ZM83.9705 36.9046V47.1421H89.4745V36.9046H83.9705ZM84.8329 45.1413L80.3747 49.3519L84.1539 53.3534L88.6121 49.1428L84.8329 45.1413ZM50.6106 123.066L48.6191 121.167C47.859 121.963 47.6473 123.137 48.0807 124.149C48.5142 125.161 49.5094 125.818 50.6106 125.818V123.066ZM54.8624 118.608V115.856C54.1099 115.856 53.3902 116.164 52.8709 116.708L54.8624 118.608ZM65.0586 118.608L67.106 116.769C66.584 116.188 65.8397 115.856 65.0586 115.856V118.608ZM69.0627 123.066V125.818C70.149 125.818 71.1337 125.179 71.5761 124.187C72.0186 123.195 71.836 122.035 71.1102 121.227L69.0627 123.066ZM49.3722 102.797L51.2811 100.815C50.4861 100.05 49.3107 99.833 48.2951 100.265C47.2795 100.697 46.6202 101.694 46.6202 102.797H49.3722ZM53.8304 107.091H56.5824C56.5824 106.343 56.278 105.627 55.7393 105.108L53.8304 107.091ZM53.8304 117.204L55.6797 119.242C56.2546 118.721 56.5824 117.98 56.5824 117.204H53.8304ZM49.3722 121.25H46.6202C46.6202 122.338 47.2621 123.325 48.2577 123.766C49.2532 124.207 50.4151 124.019 51.2215 123.288L49.3722 121.25ZM70.3837 121.25L68.4844 123.241C69.2813 124.001 70.4546 124.213 71.4669 123.779C72.4792 123.346 73.1357 122.351 73.1357 121.25H70.3837ZM65.9255 116.998H63.1735C63.1735 117.75 63.4816 118.47 64.0261 118.989L65.9255 116.998ZM65.9255 106.843L64.0761 104.805C63.5013 105.326 63.1735 106.067 63.1735 106.843H65.9255ZM70.3837 102.797H73.1357C73.1357 101.709 72.4937 100.722 71.4982 100.281C70.5026 99.8402 69.3407 100.028 68.5344 100.759L70.3837 102.797ZM50.5693 81.1254V78.3734C49.4681 78.3734 48.4729 79.0299 48.0394 80.0422C47.606 81.0546 47.8178 82.2278 48.5778 83.0247L50.5693 81.1254ZM69.0215 81.1254L71.0501 82.985C71.7876 82.1805 71.9799 81.0163 71.5405 80.0173C71.101 79.0183 70.1128 78.3734 69.0215 78.3734V81.1254ZM64.9347 85.5837V88.3357C65.7061 88.3357 66.4421 88.0119 66.9634 87.4432L64.9347 85.5837ZM54.8211 85.5837L52.8296 87.483C53.349 88.0275 54.0686 88.3357 54.8211 88.3357V85.5837ZM49.2483 101.353H46.4963C46.4963 102.451 47.1499 103.445 48.159 103.88C49.168 104.315 50.3391 104.108 51.1379 103.353L49.2483 101.353ZM49.2483 82.9005L51.0872 80.853C50.2791 80.1272 49.1195 79.9446 48.1274 80.3871C47.1353 80.8295 46.4963 81.8142 46.4963 82.9005H49.2483ZM53.7066 86.9046H56.4586C56.4586 86.1235 56.1266 85.3791 55.5455 84.8572L53.7066 86.9046ZM53.7066 97.1421L55.5962 99.1428C56.1466 98.6229 56.4586 97.8992 56.4586 97.1421H53.7066ZM70.2599 82.9005H73.0119C73.0119 81.7992 72.3554 80.804 71.343 80.3706C70.3307 79.9371 69.1575 80.1489 68.3605 80.9089L70.2599 82.9005ZM70.2599 101.353L68.421 103.4C69.2291 104.126 70.3887 104.308 71.3808 103.866C72.3729 103.424 73.0119 102.439 73.0119 101.353H70.2599ZM65.8016 97.3485H63.0496C63.0496 98.1296 63.3816 98.8739 63.9627 99.3959L65.8016 97.3485ZM65.8016 87.1523L63.9023 85.1608C63.3578 85.6801 63.0496 86.3998 63.0496 87.1523H65.8016ZM52.6021 124.965L56.8539 120.507L52.8709 116.708L48.6191 121.167L52.6021 124.965ZM54.8624 121.36H65.0586V115.856H54.8624V121.36ZM63.0111 120.447L67.0153 124.905L71.1102 121.227L67.106 116.769L63.0111 120.447ZM69.0627 120.314H50.6106V125.818H69.0627V120.314ZM47.4633 104.78L51.9215 109.073L55.7393 105.108L51.2811 100.815L47.4633 104.78ZM51.0784 107.091V117.204H56.5824V107.091H51.0784ZM51.9811 115.166L47.5229 119.212L51.2215 123.288L55.6797 119.242L51.9811 115.166ZM52.1242 121.25V102.797H46.6202V121.25H52.1242ZM72.283 119.258L67.8248 115.006L64.0261 118.989L68.4844 123.241L72.283 119.258ZM68.6775 116.998V106.843H63.1735V116.998H68.6775ZM67.7748 108.881L72.233 104.835L68.5344 100.759L64.0761 104.805L67.7748 108.881ZM67.6317 102.797V121.25H73.1357V102.797H67.6317ZM50.5693 83.8774H69.0215V78.3734H50.5693V83.8774ZM66.9928 79.2658L62.9061 83.7241L66.9634 87.4432L71.0501 82.985L66.9928 79.2658ZM64.9347 82.8317H54.8211V88.3357H64.9347V82.8317ZM56.8126 83.6843L52.5608 79.2261L48.5778 83.0247L52.8296 87.483L56.8126 83.6843ZM52.0003 101.353V82.9005H46.4963V101.353H52.0003ZM47.4094 84.9479L51.8677 88.952L55.5455 84.8572L51.0872 80.853L47.4094 84.9479ZM50.9546 86.9046V97.1421H56.4586V86.9046H50.9546ZM51.817 95.1413L47.3587 99.3519L51.1379 103.353L55.5962 99.1428L51.817 95.1413ZM67.5079 82.9005V101.353H73.0119V82.9005H67.5079ZM72.0988 99.3052L67.6405 95.301L63.9627 99.3959L68.421 103.4L72.0988 99.3052ZM68.5536 97.3485V87.1523H63.0496V97.3485H68.5536ZM67.7009 89.1438L72.1592 84.892L68.3605 80.9089L63.9023 85.1608L67.7009 89.1438ZM83.6265 123.066L81.635 121.167C80.875 121.963 80.6632 123.137 81.0967 124.149C81.5301 125.161 82.5253 125.818 83.6265 125.818V123.066ZM87.8784 118.608V115.856C87.1259 115.856 86.4062 116.164 85.8868 116.708L87.8784 118.608ZM98.0745 118.608L100.122 116.769C99.6 116.188 98.8557 115.856 98.0745 115.856V118.608ZM102.079 123.066V125.818C103.165 125.818 104.15 125.179 104.592 124.187C105.035 123.195 104.852 122.035 104.126 121.227L102.079 123.066ZM82.3881 102.797L84.297 100.815C83.502 100.05 82.3266 99.833 81.311 100.265C80.2954 100.697 79.6361 101.694 79.6361 102.797H82.3881ZM86.8464 107.091H89.5984C89.5984 106.343 89.294 105.627 88.7553 105.108L86.8464 107.091ZM86.8464 117.204L88.6957 119.242C89.2705 118.721 89.5984 117.98 89.5984 117.204H86.8464ZM82.3881 121.25H79.6361C79.6361 122.338 80.2781 123.325 81.2736 123.766C82.2692 124.207 83.4311 124.019 84.2374 123.288L82.3881 121.25ZM103.4 121.25L101.5 123.241C102.297 124.001 103.47 124.213 104.483 123.779C105.495 123.346 106.152 122.351 106.152 121.25H103.4ZM98.9414 116.998H96.1894C96.1894 117.75 96.4975 118.47 97.0421 118.989L98.9414 116.998ZM98.9414 106.843L97.0921 104.805C96.5172 105.326 96.1894 106.067 96.1894 106.843H98.9414ZM103.4 102.797H106.152C106.152 101.709 105.51 100.722 104.514 100.281C103.519 99.8402 102.357 100.028 101.55 100.759L103.4 102.797ZM83.5852 81.1254V78.3734C82.484 78.3734 81.4888 79.0299 81.0554 80.0422C80.6219 81.0546 80.8337 82.2278 81.5937 83.0247L83.5852 81.1254ZM102.037 81.1254L104.066 82.985C104.803 82.1805 104.996 81.0163 104.556 80.0173C104.117 79.0183 103.129 78.3734 102.037 78.3734V81.1254ZM97.9507 85.5837V88.3357C98.7221 88.3357 99.4581 88.0119 99.9793 87.4432L97.9507 85.5837ZM87.8371 85.5837L85.8456 87.483C86.3649 88.0275 87.0846 88.3357 87.8371 88.3357V85.5837ZM82.2643 101.353H79.5123C79.5123 102.451 80.1659 103.445 81.1749 103.88C82.184 104.315 83.355 104.108 84.1539 103.353L82.2643 101.353ZM82.2643 82.9005L84.1032 80.853C83.295 80.1272 82.1355 79.9446 81.1434 80.3871C80.1513 80.8295 79.5123 81.8142 79.5123 82.9005H82.2643ZM86.7225 86.9046H89.4745C89.4745 86.1235 89.1426 85.3791 88.5614 84.8572L86.7225 86.9046ZM86.7225 97.1421L88.6121 99.1428C89.1626 98.6229 89.4745 97.8992 89.4745 97.1421H86.7225ZM103.276 82.9005H106.028C106.028 81.7992 105.371 80.804 104.359 80.3706C103.347 79.9371 102.173 80.1489 101.376 80.9089L103.276 82.9005ZM103.276 101.353L101.437 103.4C102.245 104.126 103.405 104.308 104.397 103.866C105.389 103.424 106.028 102.439 106.028 101.353H103.276ZM98.8176 97.3485H96.0656C96.0656 98.1296 96.3975 98.8739 96.9787 99.3959L98.8176 97.3485ZM98.8176 87.1523L96.9182 85.1608C96.3737 85.6801 96.0656 86.3998 96.0656 87.1523H98.8176ZM85.618 124.965L89.8699 120.507L85.8868 116.708L81.635 121.167L85.618 124.965ZM87.8784 121.36H98.0745V115.856H87.8784V121.36ZM96.0271 120.447L100.031 124.905L104.126 121.227L100.122 116.769L96.0271 120.447ZM102.079 120.314H83.6265V125.818H102.079V120.314ZM80.4792 104.78L84.9375 109.073L88.7553 105.108L84.297 100.815L80.4792 104.78ZM84.0944 107.091V117.204H89.5984V107.091H84.0944ZM84.997 115.166L80.5388 119.212L84.2374 123.288L88.6957 119.242L84.997 115.166ZM85.1401 121.25V102.797H79.6361V121.25H85.1401ZM105.299 119.258L100.841 115.006L97.0421 118.989L101.5 123.241L105.299 119.258ZM101.693 116.998V106.843H96.1894V116.998H101.693ZM100.791 108.881L105.249 104.835L101.55 100.759L97.0921 104.805L100.791 108.881ZM100.648 102.797V121.25H106.152V102.797H100.648ZM83.5852 83.8774H102.037V78.3734H83.5852V83.8774ZM100.009 79.2658L95.922 83.7241L99.9793 87.4432L104.066 82.985L100.009 79.2658ZM97.9507 82.8317H87.8371V88.3357H97.9507V82.8317ZM89.8286 83.6843L85.5767 79.2261L81.5937 83.0247L85.8456 87.483L89.8286 83.6843ZM85.0163 101.353V82.9005H79.5123V101.353H85.0163ZM80.4254 84.9479L84.8836 88.952L88.5614 84.8572L84.1032 80.853L80.4254 84.9479ZM83.9705 86.9046V97.1421H89.4745V86.9046H83.9705ZM84.8329 95.1413L80.3747 99.3519L84.1539 103.353L88.6121 99.1428L84.8329 95.1413ZM100.524 82.9005V101.353H106.028V82.9005H100.524ZM105.115 99.3052L100.656 95.301L96.9787 99.3959L101.437 103.4L105.115 99.3052ZM101.57 97.3485V87.1523H96.0656V97.3485H101.57ZM100.717 89.1438L105.175 84.892L101.376 80.9089L96.9182 85.1608L100.717 89.1438Z" fill="white"/>
<path d="M75.984 7.04126C84.928 6.5826 107.563 9.75886 123.112 26.1333" stroke="#70CB51" stroke-width="13.76" stroke-linecap="round" stroke-linejoin="round"/>
<defs>
<filter id="filter0_d_16_18" x="0.304008" y="1.88126" width="148.952" height="148.952" filterUnits="userSpaceOnUse" color-interpolation-filters="sRGB">
<feFlood flood-opacity="0" result="BackgroundImageFix"/>
<feColorMatrix in="SourceAlpha" type="matrix" values="0 0 0 0 0 0 0 0 0 0 0 0 0 0 0 0 0 0 127 0" result="hardAlpha"/>
<feMorphology radius="0.688" operator="dilate" in="SourceAlpha" result="effect1_dropShadow_16_18"/>
<feOffset dx="-1.72" dy="1.72"/>
<feGaussianBlur stdDeviation="1.72"/>
<feComposite in2="hardAlpha" operator="out"/>
<feColorMatrix type="matrix" values="0 0 0 0 0 0 0 0 0 0 0 0 0 0 0 0 0 0 0.25 0"/>
<feBlend mode="normal" in2="BackgroundImageFix" result="effect1_dropShadow_16_18"/>
<feBlend mode="normal" in="SourceGraphic" in2="effect1_dropShadow_16_18" result="shape"/>
</filter>
</defs>
</svg>
